<svg id="Layer_1" data-name="Layer 1" xmlns="http://www.w3.org/2000/svg" viewBox="0 0 71.17 153.42"><defs><style>.cls-1{fill:#fff;}</style></defs><title>2019</title><path class="cls-1" d="M91.86,162.57l22.22-27.81a10.59,10.59,0,0,0,1.76-3.13,11.47,11.47,0,0,0,.31-2.58,8.43,8.43,0,0,0-2-5.58A7.55,7.55,0,0,0,108.3,121a7.71,7.71,0,0,0-5.59,2.15,9.38,9.38,0,0,0-2.73,6.05H91.86a17.44,17.44,0,0,1,4.76-11.76,15.28,15.28,0,0,1,11.06-4.61,16.35,16.35,0,0,1,11.91,4.69,16.44,16.44,0,0,1,1.29,21.6l-18.32,23h21.76v8.16H91.86Z" transform="translate(-91.86 -112.84)"/><path class="cls-1" d="M130.72,129.21q.08-7.89,5-12.15a16,16,0,0,1,11.1-4.22,16.2,16.2,0,0,1,11.28,4.22q4.73,4.26,4.89,12.15v25.12q-.17,7.84-4.89,12.11a16.49,16.49,0,0,1-11.28,4.29,16.26,16.26,0,0,1-11.1-4.29q-5-4.26-5-12.11Zm24.14.51q-.23-8.56-8-8.71-7.81.15-8,8.71v24.14q.15,8.63,8,8.71,7.77-.07,8-8.71Z" transform="translate(-91.86 -112.84)"/><path class="cls-1" d="M96.7,223.88v-8.67l8.08-5.9H113v56.95h-8.17V217.94Z" transform="translate(-91.86 -112.84)"/><path class="cls-1" d="M136.11,266.26s.2-.47.67-1.42l1.83-3.69c.76-1.51,1.6-3.19,2.54-5s1.86-3.67,2.78-5.47,1.76-3.45,2.55-5,1.44-2.7,1.94-3.56a6.06,6.06,0,0,1-2.56.8,21.88,21.88,0,0,1-3.3.06,11.94,11.94,0,0,1-4.51-.93,12.29,12.29,0,0,1-3.34-2.15,12.8,12.8,0,0,1-2.35-2.87,20.74,20.74,0,0,1-1.5-3.09,17.28,17.28,0,0,1-.82-2.81,11.56,11.56,0,0,1-.26-2c0-.16,0-.45,0-.86s0-.88,0-1.39,0-1,0-1.54a11.77,11.77,0,0,1,.09-1.33c0-.18.11-.64.26-1.39a16.76,16.76,0,0,1,.8-2.67,21.29,21.29,0,0,1,1.64-3.34,14.67,14.67,0,0,1,2.75-3.34,16.19,16.19,0,0,1,4.18-2.7,18.38,18.38,0,0,1,5.88-1.44,17.71,17.71,0,0,1,6.27.43,14.26,14.26,0,0,1,4.67,2.15,13.27,13.27,0,0,1,3.24,3.28,17.49,17.49,0,0,1,2,3.81,17,17,0,0,1,1,3.75,12.73,12.73,0,0,1,.08,3.1q-.24,1.92-.51,3.42c-.18,1-.4,2-.64,2.87s-.53,1.81-.84,2.7-.68,1.84-1.1,2.89c-.1.28-.38.91-.84,1.87s-1,2.14-1.72,3.54-1.44,2.94-2.26,4.64-1.66,3.42-2.52,5.14l-6.72,13.59ZM137.87,225c0,1,0,2.14.16,3.36a9.91,9.91,0,0,0,.92,3.46,6.87,6.87,0,0,0,2.4,2.77,8.7,8.7,0,0,0,4.61,1.31,6.51,6.51,0,0,0,2.69-.37,7.59,7.59,0,0,0,2.15-1.19,8,8,0,0,0,1.62-1.68,11.94,11.94,0,0,0,1.13-1.85,9,9,0,0,0,.65-1.7,5.41,5.41,0,0,0,.19-1.25c0-.65,0-1.38,0-2.19a17.35,17.35,0,0,0-.24-2.46,9.79,9.79,0,0,0-.72-2.4,6,6,0,0,0-1.45-2,6.45,6.45,0,0,0-2.4-1.34,9.84,9.84,0,0,0-3.65-.37,7.27,7.27,0,0,0-4,1.21,9.52,9.52,0,0,0-2.44,2.42,9,9,0,0,0-1.25,2.58A7.94,7.94,0,0,0,137.87,225Z" transform="translate(-91.86 -112.84)"/></svg>