<?xml version="1.0" encoding="utf-8"?>
<!-- Generator: Adobe Illustrator 22.0.0, SVG Export Plug-In . SVG Version: 6.00 Build 0)  -->
<svg version="1.1" id="Layer_1" xmlns="http://www.w3.org/2000/svg" xmlns:xlink="http://www.w3.org/1999/xlink" x="0px" y="0px"
	 viewBox="0 0 1920 1080" style="enable-background:new 0 0 1920 1080;" xml:space="preserve">
<style type="text/css">
	.st0{opacity:0.3;fill:none;stroke:#FFFFFF;stroke-width:2;}
	.st1{opacity:0.9;enable-background:new    ;}
</style>
<g>
	<line class="st0" x1="260.7" y1="-15.4" x2="260.7" y2="1015"/>
	<line class="st0" x1="408.4" y1="-15.4" x2="408.4" y2="1015"/>
	<line class="st0" x1="260.7" y1="-15.4" x2="260.7" y2="1015"/>
	<line class="st0" x1="408.4" y1="-15.4" x2="408.4" y2="1015"/>
	<line class="st0" x1="556.1" y1="-15.4" x2="556.1" y2="1015"/>
	<line class="st0" x1="703.8" y1="-15.4" x2="703.8" y2="1015"/>
	<line class="st0" x1="851.4" y1="-15.4" x2="851.4" y2="1015"/>
	<line class="st0" x1="999.1" y1="-15.4" x2="999.1" y2="1015"/>
	<line class="st0" x1="851.4" y1="-15.4" x2="851.4" y2="1015"/>
	<line class="st0" x1="999.1" y1="-15.4" x2="999.1" y2="1015"/>
	<line class="st0" x1="1146.8" y1="-15.4" x2="1146.8" y2="1015"/>
	<line class="st0" x1="1294.5" y1="-15.4" x2="1294.5" y2="1015"/>
	<line class="st0" x1="1442.2" y1="-15.4" x2="1442.2" y2="1015"/>
	<line class="st0" x1="1589.8" y1="-15.4" x2="1589.8" y2="1015"/>
	<line class="st0" x1="1442.2" y1="-15.4" x2="1442.2" y2="1015"/>
	<line class="st0" x1="1589.8" y1="-15.4" x2="1589.8" y2="1015"/>
	<g class="st1">
		<line class="st0" x1="115.3" y1="131.1" x2="1735.2" y2="131.1"/>
	</g>
	<g class="st1">
		<line class="st0" x1="115.3" y1="279.9" x2="1735.2" y2="279.9"/>
	</g>
	<g class="st1">
		<line class="st0" x1="115.3" y1="428.8" x2="1735.2" y2="428.8"/>
	</g>
	<g class="st1">
		<line class="st0" x1="115.3" y1="577.6" x2="1735.2" y2="577.6"/>
	</g>
	<g class="st1">
		<line class="st0" x1="115.3" y1="726.4" x2="1735.2" y2="726.4"/>
	</g>
	<g class="st1">
		<line class="st0" x1="115.3" y1="875.2" x2="1735.2" y2="875.2"/>
	</g>
	<line class="st0" x1="330.1" y1="64.3" x2="330.1" y2="1094.6"/>
	<line class="st0" x1="477.8" y1="64.3" x2="477.8" y2="1094.6"/>
	<line class="st0" x1="330.1" y1="64.3" x2="330.1" y2="1094.6"/>
	<line class="st0" x1="477.8" y1="64.3" x2="477.8" y2="1094.6"/>
	<line class="st0" x1="625.5" y1="64.3" x2="625.5" y2="1094.6"/>
	<line class="st0" x1="773.2" y1="64.3" x2="773.2" y2="1094.6"/>
	<line class="st0" x1="920.9" y1="64.3" x2="920.9" y2="1094.6"/>
	<line class="st0" x1="1068.5" y1="64.3" x2="1068.5" y2="1094.6"/>
	<line class="st0" x1="920.9" y1="64.3" x2="920.9" y2="1094.6"/>
	<line class="st0" x1="1216.2" y1="64.3" x2="1216.2" y2="1094.6"/>
	<line class="st0" x1="1363.9" y1="64.3" x2="1363.9" y2="1094.6"/>
	<line class="st0" x1="1511.6" y1="64.3" x2="1511.6" y2="1094.6"/>
	<line class="st0" x1="1659.2" y1="64.3" x2="1659.2" y2="1094.6"/>
	<line class="st0" x1="1511.6" y1="64.3" x2="1511.6" y2="1094.6"/>
	<line class="st0" x1="1659.2" y1="64.3" x2="1659.2" y2="1094.6"/>
	<g class="st1">
		<line class="st0" x1="184.7" y1="210.8" x2="1804.6" y2="210.8"/>
	</g>
	<g class="st1">
		<line class="st0" x1="184.7" y1="359.6" x2="1804.6" y2="359.6"/>
	</g>
	<g class="st1">
		<line class="st0" x1="184.7" y1="508.4" x2="1804.6" y2="508.4"/>
	</g>
	<g class="st1">
		<line class="st0" x1="184.7" y1="657.3" x2="1804.6" y2="657.3"/>
	</g>
	<g class="st1">
		<line class="st0" x1="184.7" y1="806.1" x2="1804.6" y2="806.1"/>
	</g>
	<g class="st1">
		<line class="st0" x1="184.7" y1="954.9" x2="1804.6" y2="954.9"/>
	</g>
</g>
</svg>
